<?xml version="1.0" encoding="UTF-8" ?>
<svg version="1.1" width="1920" height="1080" xmlns="http://www.w3.org/2000/svg" shape-rendering="crispEdges">
<rect x="759" y="54" width="30" height="16" fill="#000000" />
<rect x="1261" y="68" width="30" height="16" fill="#000000" />
<rect x="745" y="70" width="14" height="15" fill="#000000" />
<rect x="759" y="70" width="15" height="30" fill="#FFDF12" />
<rect x="774" y="70" width="15" height="30" fill="#000000" />
<rect x="1247" y="84" width="14" height="15" fill="#000000" />
<rect x="1261" y="84" width="15" height="30" fill="#FFDF12" />
<rect x="1276" y="84" width="15" height="30" fill="#000000" />
<rect x="729" y="85" width="16" height="15" fill="#000000" />
<rect x="745" y="85" width="14" height="45" fill="#FFDF12" />
<rect x="1231" y="99" width="16" height="15" fill="#000000" />
<rect x="1247" y="99" width="14" height="45" fill="#FFDF12" />
<rect x="714" y="100" width="15" height="15" fill="#000000" />
<rect x="729" y="100" width="16" height="60" fill="#FFDF12" />
<rect x="759" y="100" width="15" height="30" fill="#000000" />
<rect x="1216" y="114" width="15" height="15" fill="#000000" />
<rect x="1231" y="114" width="16" height="60" fill="#FFDF12" />
<rect x="1261" y="114" width="15" height="30" fill="#000000" />
<rect x="699" y="115" width="15" height="15" fill="#000000" />
<rect x="714" y="115" width="15" height="119" fill="#FFDF12" />
<rect x="1201" y="129" width="15" height="15" fill="#000000" />
<rect x="1216" y="129" width="15" height="119" fill="#FFDF12" />
<rect x="684" y="130" width="15" height="15" fill="#000000" />
<rect x="699" y="130" width="15" height="181" fill="#FFDF12" />
<rect x="745" y="130" width="15" height="30" fill="#000000" />
<rect x="1186" y="144" width="15" height="15" fill="#000000" />
<rect x="1201" y="144" width="15" height="181" fill="#FFDF12" />
<rect x="1247" y="144" width="15" height="30" fill="#000000" />
<rect x="669" y="145" width="15" height="15" fill="#000000" />
<rect x="684" y="145" width="15" height="30" fill="#FFDF12" />
<rect x="1171" y="159" width="15" height="15" fill="#000000" />
<rect x="1186" y="159" width="15" height="30" fill="#FFDF12" />
<rect x="654" y="160" width="15" height="30" fill="#000000" />
<rect x="669" y="160" width="15" height="15" fill="#FFDF12" />
<rect x="729" y="160" width="16" height="30" fill="#000000" />
<rect x="1156" y="174" width="15" height="30" fill="#000000" />
<rect x="1171" y="174" width="15" height="15" fill="#FFDF12" />
<rect x="1231" y="174" width="16" height="30" fill="#000000" />
<rect x="669" y="175" width="30" height="15" fill="#000000" />
<rect x="745" y="175" width="29" height="15" fill="#000000" />
<rect x="1171" y="189" width="30" height="15" fill="#000000" />
<rect x="1247" y="189" width="29" height="15" fill="#000000" />
<rect x="684" y="190" width="15" height="15" fill="#000000" />
<rect x="729" y="190" width="30" height="15" fill="#FFDF12" />
<rect x="759" y="190" width="15" height="15" fill="#000000" />
<rect x="1186" y="204" width="15" height="15" fill="#000000" />
<rect x="1231" y="204" width="30" height="15" fill="#FFDF12" />
<rect x="1261" y="204" width="15" height="15" fill="#000000" />
<rect x="669" y="205" width="15" height="15" fill="#000000" />
<rect x="684" y="205" width="15" height="120" fill="#FFDF12" />
<rect x="729" y="205" width="16" height="16" fill="#FFDF12" />
<rect x="745" y="205" width="14" height="16" fill="#000000" />
<rect x="1171" y="219" width="15" height="15" fill="#000000" />
<rect x="1186" y="219" width="15" height="120" fill="#FFDF12" />
<rect x="1231" y="219" width="16" height="16" fill="#FFDF12" />
<rect x="1247" y="219" width="14" height="16" fill="#000000" />
<rect x="654" y="220" width="15" height="14" fill="#000000" />
<rect x="669" y="220" width="15" height="31" fill="#FFDF12" />
<rect x="729" y="221" width="16" height="14" fill="#000000" />
<rect x="639" y="234" width="15" height="30" fill="#000000" />
<rect x="654" y="234" width="15" height="17" fill="#FFDF12" />
<rect x="714" y="234" width="15" height="31" fill="#000000" />
<rect x="1156" y="234" width="15" height="14" fill="#000000" />
<rect x="1171" y="234" width="15" height="31" fill="#FFDF12" />
<rect x="1231" y="235" width="16" height="14" fill="#000000" />
<rect x="1141" y="248" width="15" height="30" fill="#000000" />
<rect x="1156" y="248" width="15" height="17" fill="#FFDF12" />
<rect x="1216" y="248" width="15" height="31" fill="#000000" />
<rect x="729" y="250" width="31" height="15" fill="#000000" />
<rect x="654" y="251" width="30" height="13" fill="#000000" />
<rect x="668" y="264" width="16" height="17" fill="#000000" />
<rect x="1231" y="264" width="31" height="15" fill="#000000" />
<rect x="714" y="265" width="30" height="15" fill="#FFDF12" />
<rect x="744" y="265" width="16" height="15" fill="#000000" />
<rect x="1156" y="265" width="30" height="13" fill="#000000" />
<rect x="1170" y="278" width="16" height="17" fill="#000000" />
<rect x="1216" y="279" width="30" height="15" fill="#FFDF12" />
<rect x="1246" y="279" width="16" height="15" fill="#000000" />
<rect x="653" y="280" width="15" height="31" fill="#000000" />
<rect x="714" y="280" width="16" height="15" fill="#FFDF12" />
<rect x="730" y="280" width="14" height="16" fill="#000000" />
<rect x="668" y="281" width="16" height="60" fill="#FFDF12" />
<rect x="1155" y="294" width="15" height="31" fill="#000000" />
<rect x="1216" y="294" width="16" height="15" fill="#FFDF12" />
<rect x="1232" y="294" width="14" height="16" fill="#000000" />
<rect x="714" y="295" width="16" height="16" fill="#000000" />
<rect x="1170" y="295" width="16" height="60" fill="#FFDF12" />
<rect x="987" y="299" width="30" height="16" fill="#000000" />
<rect x="1216" y="309" width="16" height="16" fill="#000000" />
<rect x="638" y="310" width="15" height="31" fill="#000000" />
<rect x="653" y="311" width="15" height="46" fill="#FFDF12" />
<rect x="699" y="311" width="15" height="14" fill="#000000" />
<rect x="973" y="315" width="14" height="15" fill="#000000" />
<rect x="987" y="315" width="15" height="30" fill="#FFDF12" />
<rect x="1002" y="315" width="15" height="30" fill="#000000" />
<rect x="1140" y="324" width="15" height="31" fill="#000000" />
<rect x="684" y="325" width="15" height="16" fill="#000000" />
<rect x="1155" y="325" width="15" height="46" fill="#FFDF12" />
<rect x="1201" y="325" width="15" height="14" fill="#000000" />
<rect x="957" y="330" width="16" height="15" fill="#000000" />
<rect x="973" y="330" width="14" height="45" fill="#FFDF12" />
<rect x="1186" y="339" width="15" height="16" fill="#000000" />
<rect x="624" y="340" width="14" height="46" fill="#000000" />
<rect x="638" y="341" width="1" height="45" fill="#000000" />
<rect x="639" y="341" width="14" height="30" fill="#FFDF12" />
<rect x="668" y="341" width="1" height="16" fill="#FFDF12" />
<rect x="669" y="341" width="15" height="16" fill="#000000" />
<rect x="942" y="345" width="15" height="15" fill="#000000" />
<rect x="957" y="345" width="16" height="60" fill="#FFDF12" />
<rect x="987" y="345" width="15" height="30" fill="#000000" />
<rect x="1126" y="354" width="14" height="46" fill="#000000" />
<rect x="1140" y="355" width="1" height="45" fill="#000000" />
<rect x="1141" y="355" width="14" height="30" fill="#FFDF12" />
<rect x="1170" y="355" width="1" height="16" fill="#FFDF12" />
<rect x="1171" y="355" width="15" height="16" fill="#000000" />
<rect x="653" y="357" width="16" height="14" fill="#000000" />
<rect x="927" y="360" width="15" height="15" fill="#000000" />
<rect x="942" y="360" width="15" height="119" fill="#FFDF12" />
<rect x="639" y="371" width="14" height="15" fill="#000000" />
<rect x="1155" y="371" width="16" height="14" fill="#000000" />
<rect x="912" y="375" width="15" height="15" fill="#000000" />
<rect x="927" y="375" width="15" height="181" fill="#FFDF12" />
<rect x="973" y="375" width="15" height="30" fill="#000000" />
<rect x="1141" y="385" width="14" height="15" fill="#000000" />
<rect x="897" y="390" width="15" height="15" fill="#000000" />
<rect x="912" y="390" width="15" height="30" fill="#FFDF12" />
<rect x="882" y="405" width="15" height="30" fill="#000000" />
<rect x="897" y="405" width="15" height="15" fill="#FFDF12" />
<rect x="957" y="405" width="16" height="30" fill="#000000" />
<rect x="897" y="420" width="30" height="15" fill="#000000" />
<rect x="973" y="420" width="29" height="15" fill="#000000" />
<rect x="1325" y="428" width="30" height="16" fill="#000000" />
<rect x="912" y="435" width="15" height="15" fill="#000000" />
<rect x="957" y="435" width="30" height="15" fill="#FFDF12" />
<rect x="987" y="435" width="15" height="15" fill="#000000" />
<rect x="1311" y="444" width="14" height="15" fill="#000000" />
<rect x="1325" y="444" width="15" height="30" fill="#FFDF12" />
<rect x="1340" y="444" width="15" height="30" fill="#000000" />
<rect x="897" y="450" width="15" height="15" fill="#000000" />
<rect x="912" y="450" width="15" height="120" fill="#FFDF12" />
<rect x="957" y="450" width="16" height="16" fill="#FFDF12" />
<rect x="973" y="450" width="14" height="16" fill="#000000" />
<rect x="1295" y="459" width="16" height="15" fill="#000000" />
<rect x="1311" y="459" width="14" height="45" fill="#FFDF12" />
<rect x="882" y="465" width="15" height="14" fill="#000000" />
<rect x="897" y="465" width="15" height="31" fill="#FFDF12" />
<rect x="957" y="466" width="16" height="14" fill="#000000" />
<rect x="1280" y="474" width="15" height="15" fill="#000000" />
<rect x="1295" y="474" width="16" height="60" fill="#FFDF12" />
<rect x="1325" y="474" width="15" height="30" fill="#000000" />
<rect x="867" y="479" width="15" height="30" fill="#000000" />
<rect x="882" y="479" width="15" height="17" fill="#FFDF12" />
<rect x="942" y="479" width="15" height="31" fill="#000000" />
<rect x="1265" y="489" width="15" height="15" fill="#000000" />
<rect x="1280" y="489" width="15" height="119" fill="#FFDF12" />
<rect x="957" y="495" width="31" height="15" fill="#000000" />
<rect x="882" y="496" width="30" height="13" fill="#000000" />
<rect x="1250" y="504" width="15" height="15" fill="#000000" />
<rect x="1265" y="504" width="15" height="181" fill="#FFDF12" />
<rect x="1311" y="504" width="15" height="30" fill="#000000" />
<rect x="896" y="509" width="16" height="17" fill="#000000" />
<rect x="942" y="510" width="30" height="15" fill="#FFDF12" />
<rect x="972" y="510" width="16" height="15" fill="#000000" />
<rect x="1235" y="519" width="15" height="15" fill="#000000" />
<rect x="1250" y="519" width="15" height="30" fill="#FFDF12" />
<rect x="881" y="525" width="15" height="31" fill="#000000" />
<rect x="942" y="525" width="16" height="15" fill="#FFDF12" />
<rect x="958" y="525" width="14" height="16" fill="#000000" />
<rect x="896" y="526" width="16" height="60" fill="#FFDF12" />
<rect x="1220" y="534" width="15" height="30" fill="#000000" />
<rect x="1235" y="534" width="15" height="15" fill="#FFDF12" />
<rect x="1295" y="534" width="16" height="30" fill="#000000" />
<rect x="942" y="540" width="16" height="16" fill="#000000" />
<rect x="1235" y="549" width="30" height="15" fill="#000000" />
<rect x="1311" y="549" width="29" height="15" fill="#000000" />
<rect x="866" y="555" width="15" height="31" fill="#000000" />
<rect x="881" y="556" width="15" height="46" fill="#FFDF12" />
<rect x="927" y="556" width="15" height="14" fill="#000000" />
<rect x="1250" y="564" width="15" height="15" fill="#000000" />
<rect x="1295" y="564" width="30" height="15" fill="#FFDF12" />
<rect x="1325" y="564" width="15" height="15" fill="#000000" />
<rect x="912" y="570" width="15" height="16" fill="#000000" />
<rect x="1235" y="579" width="15" height="15" fill="#000000" />
<rect x="1250" y="579" width="15" height="120" fill="#FFDF12" />
<rect x="1295" y="579" width="16" height="16" fill="#FFDF12" />
<rect x="1311" y="579" width="14" height="16" fill="#000000" />
<rect x="852" y="585" width="14" height="46" fill="#000000" />
<rect x="866" y="586" width="1" height="45" fill="#000000" />
<rect x="867" y="586" width="14" height="30" fill="#FFDF12" />
<rect x="896" y="586" width="1" height="16" fill="#FFDF12" />
<rect x="897" y="586" width="15" height="16" fill="#000000" />
<rect x="1220" y="594" width="15" height="14" fill="#000000" />
<rect x="1235" y="594" width="15" height="31" fill="#FFDF12" />
<rect x="1295" y="595" width="16" height="14" fill="#000000" />
<rect x="726" y="596" width="30" height="16" fill="#000000" />
<rect x="881" y="602" width="16" height="14" fill="#000000" />
<rect x="1205" y="608" width="15" height="30" fill="#000000" />
<rect x="1220" y="608" width="15" height="17" fill="#FFDF12" />
<rect x="1280" y="608" width="15" height="31" fill="#000000" />
<rect x="712" y="612" width="14" height="15" fill="#000000" />
<rect x="726" y="612" width="15" height="30" fill="#FFDF12" />
<rect x="741" y="612" width="15" height="30" fill="#000000" />
<rect x="867" y="616" width="14" height="15" fill="#000000" />
<rect x="1295" y="624" width="31" height="15" fill="#000000" />
<rect x="1220" y="625" width="30" height="13" fill="#000000" />
<rect x="696" y="627" width="16" height="15" fill="#000000" />
<rect x="712" y="627" width="14" height="45" fill="#FFDF12" />
<rect x="1234" y="638" width="16" height="17" fill="#000000" />
<rect x="1280" y="639" width="30" height="15" fill="#FFDF12" />
<rect x="1310" y="639" width="16" height="15" fill="#000000" />
<rect x="681" y="642" width="15" height="15" fill="#000000" />
<rect x="696" y="642" width="16" height="60" fill="#FFDF12" />
<rect x="726" y="642" width="15" height="30" fill="#000000" />
<rect x="1219" y="654" width="15" height="31" fill="#000000" />
<rect x="1280" y="654" width="16" height="15" fill="#FFDF12" />
<rect x="1296" y="654" width="14" height="16" fill="#000000" />
<rect x="1234" y="655" width="16" height="60" fill="#FFDF12" />
<rect x="666" y="657" width="15" height="15" fill="#000000" />
<rect x="681" y="657" width="15" height="119" fill="#FFDF12" />
<rect x="1280" y="669" width="16" height="16" fill="#000000" />
<rect x="651" y="672" width="15" height="15" fill="#000000" />
<rect x="666" y="672" width="15" height="181" fill="#FFDF12" />
<rect x="712" y="672" width="15" height="30" fill="#000000" />
<rect x="1204" y="684" width="15" height="31" fill="#000000" />
<rect x="1219" y="685" width="15" height="46" fill="#FFDF12" />
<rect x="1265" y="685" width="15" height="14" fill="#000000" />
<rect x="636" y="687" width="15" height="15" fill="#000000" />
<rect x="651" y="687" width="15" height="30" fill="#FFDF12" />
<rect x="1250" y="699" width="15" height="16" fill="#000000" />
<rect x="621" y="702" width="15" height="30" fill="#000000" />
<rect x="636" y="702" width="15" height="15" fill="#FFDF12" />
<rect x="696" y="702" width="16" height="30" fill="#000000" />
<rect x="1001" y="712" width="30" height="16" fill="#000000" />
<rect x="1190" y="714" width="14" height="46" fill="#000000" />
<rect x="1204" y="715" width="1" height="45" fill="#000000" />
<rect x="1205" y="715" width="14" height="30" fill="#FFDF12" />
<rect x="1234" y="715" width="1" height="16" fill="#FFDF12" />
<rect x="1235" y="715" width="15" height="16" fill="#000000" />
<rect x="636" y="717" width="30" height="15" fill="#000000" />
<rect x="712" y="717" width="29" height="15" fill="#000000" />
<rect x="987" y="728" width="14" height="15" fill="#000000" />
<rect x="1001" y="728" width="15" height="30" fill="#FFDF12" />
<rect x="1016" y="728" width="15" height="30" fill="#000000" />
<rect x="1219" y="731" width="16" height="14" fill="#000000" />
<rect x="651" y="732" width="15" height="15" fill="#000000" />
<rect x="696" y="732" width="30" height="15" fill="#FFDF12" />
<rect x="726" y="732" width="15" height="15" fill="#000000" />
<rect x="971" y="743" width="16" height="15" fill="#000000" />
<rect x="987" y="743" width="14" height="45" fill="#FFDF12" />
<rect x="1205" y="745" width="14" height="15" fill="#000000" />
<rect x="636" y="747" width="15" height="15" fill="#000000" />
<rect x="651" y="747" width="15" height="120" fill="#FFDF12" />
<rect x="696" y="747" width="16" height="16" fill="#FFDF12" />
<rect x="712" y="747" width="14" height="16" fill="#000000" />
<rect x="956" y="758" width="15" height="15" fill="#000000" />
<rect x="971" y="758" width="16" height="60" fill="#FFDF12" />
<rect x="1001" y="758" width="15" height="30" fill="#000000" />
<rect x="621" y="762" width="15" height="14" fill="#000000" />
<rect x="636" y="762" width="15" height="31" fill="#FFDF12" />
<rect x="696" y="763" width="16" height="14" fill="#000000" />
<rect x="941" y="773" width="15" height="15" fill="#000000" />
<rect x="956" y="773" width="15" height="119" fill="#FFDF12" />
<rect x="606" y="776" width="15" height="30" fill="#000000" />
<rect x="621" y="776" width="15" height="17" fill="#FFDF12" />
<rect x="681" y="776" width="15" height="31" fill="#000000" />
<rect x="926" y="788" width="15" height="15" fill="#000000" />
<rect x="941" y="788" width="15" height="181" fill="#FFDF12" />
<rect x="987" y="788" width="15" height="30" fill="#000000" />
<rect x="696" y="792" width="31" height="15" fill="#000000" />
<rect x="621" y="793" width="30" height="13" fill="#000000" />
<rect x="911" y="803" width="15" height="15" fill="#000000" />
<rect x="926" y="803" width="15" height="30" fill="#FFDF12" />
<rect x="635" y="806" width="16" height="17" fill="#000000" />
<rect x="681" y="807" width="30" height="15" fill="#FFDF12" />
<rect x="711" y="807" width="16" height="15" fill="#000000" />
<rect x="896" y="818" width="15" height="30" fill="#000000" />
<rect x="911" y="818" width="15" height="15" fill="#FFDF12" />
<rect x="971" y="818" width="16" height="30" fill="#000000" />
<rect x="620" y="822" width="15" height="31" fill="#000000" />
<rect x="681" y="822" width="16" height="15" fill="#FFDF12" />
<rect x="697" y="822" width="14" height="16" fill="#000000" />
<rect x="635" y="823" width="16" height="60" fill="#FFDF12" />
<rect x="911" y="833" width="30" height="15" fill="#000000" />
<rect x="987" y="833" width="29" height="15" fill="#000000" />
<rect x="681" y="837" width="16" height="16" fill="#000000" />
<rect x="926" y="848" width="15" height="15" fill="#000000" />
<rect x="971" y="848" width="30" height="15" fill="#FFDF12" />
<rect x="1001" y="848" width="15" height="15" fill="#000000" />
<rect x="605" y="852" width="15" height="31" fill="#000000" />
<rect x="620" y="853" width="15" height="46" fill="#FFDF12" />
<rect x="666" y="853" width="15" height="14" fill="#000000" />
<rect x="911" y="863" width="15" height="15" fill="#000000" />
<rect x="926" y="863" width="15" height="120" fill="#FFDF12" />
<rect x="971" y="863" width="16" height="16" fill="#FFDF12" />
<rect x="987" y="863" width="14" height="16" fill="#000000" />
<rect x="651" y="867" width="15" height="16" fill="#000000" />
<rect x="896" y="878" width="15" height="14" fill="#000000" />
<rect x="911" y="878" width="15" height="31" fill="#FFDF12" />
<rect x="971" y="879" width="16" height="14" fill="#000000" />
<rect x="591" y="882" width="14" height="46" fill="#000000" />
<rect x="605" y="883" width="1" height="45" fill="#000000" />
<rect x="606" y="883" width="14" height="30" fill="#FFDF12" />
<rect x="635" y="883" width="1" height="16" fill="#FFDF12" />
<rect x="636" y="883" width="15" height="16" fill="#000000" />
<rect x="881" y="892" width="15" height="30" fill="#000000" />
<rect x="896" y="892" width="15" height="17" fill="#FFDF12" />
<rect x="956" y="892" width="15" height="31" fill="#000000" />
<rect x="620" y="899" width="16" height="14" fill="#000000" />
<rect x="971" y="908" width="31" height="15" fill="#000000" />
<rect x="896" y="909" width="30" height="13" fill="#000000" />
<rect x="606" y="913" width="14" height="15" fill="#000000" />
<rect x="910" y="922" width="16" height="17" fill="#000000" />
<rect x="956" y="923" width="30" height="15" fill="#FFDF12" />
<rect x="986" y="923" width="16" height="15" fill="#000000" />
<rect x="895" y="938" width="15" height="31" fill="#000000" />
<rect x="956" y="938" width="16" height="15" fill="#FFDF12" />
<rect x="972" y="938" width="14" height="16" fill="#000000" />
<rect x="910" y="939" width="16" height="60" fill="#FFDF12" />
<rect x="956" y="953" width="16" height="16" fill="#000000" />
<rect x="880" y="968" width="15" height="31" fill="#000000" />
<rect x="895" y="969" width="15" height="46" fill="#FFDF12" />
<rect x="941" y="969" width="15" height="14" fill="#000000" />
<rect x="926" y="983" width="15" height="16" fill="#000000" />
<rect x="866" y="998" width="14" height="46" fill="#000000" />
<rect x="880" y="999" width="1" height="45" fill="#000000" />
<rect x="881" y="999" width="14" height="30" fill="#FFDF12" />
<rect x="910" y="999" width="1" height="16" fill="#FFDF12" />
<rect x="911" y="999" width="15" height="16" fill="#000000" />
<rect x="895" y="1015" width="16" height="14" fill="#000000" />
<rect x="881" y="1029" width="14" height="15" fill="#000000" />
</svg>