<?xml version="1.0" encoding="UTF-8" ?>
<svg version="1.1" width="1920" height="1080" xmlns="http://www.w3.org/2000/svg" shape-rendering="crispEdges">
<rect x="882" y="406" width="12" height="12" fill="#E32C00" />
<rect x="995" y="406" width="12" height="12" fill="#E32C00" />
<rect x="894" y="417" width="24" height="12" fill="#E32C00" />
<rect x="893" y="418" width="1" height="11" fill="#E32C00" />
<rect x="824" y="439" width="12" height="12" fill="#E32C00" />
<rect x="836" y="439" width="12" height="24" fill="#EFF801" />
<rect x="848" y="439" width="12" height="12" fill="#E32C00" />
<rect x="949" y="440" width="25" height="12" fill="#E32C00" />
<rect x="1075" y="440" width="12" height="12" fill="#E32C00" />
<rect x="801" y="451" width="23" height="12" fill="#E32C00" />
<rect x="824" y="451" width="12" height="12" fill="#F67800" />
<rect x="848" y="451" width="12" height="24" fill="#EFF801" />
<rect x="984" y="452" width="68" height="22" fill="#E32C00" />
<rect x="1052" y="462" width="81" height="12" fill="#E32C00" />
<rect x="825" y="463" width="11" height="12" fill="#E32C00" />
<rect x="836" y="463" width="12" height="12" fill="#F67800" />
<rect x="893" y="463" width="91" height="12" fill="#E32C00" />
<rect x="984" y="474" width="56" height="1" fill="#E32C00" />
<rect x="1040" y="474" width="81" height="12" fill="#F67800" />
<rect x="1121" y="474" width="24" height="11" fill="#E32C00" />
<rect x="1008" y="475" width="32" height="10" fill="#E32C00" />
<rect x="802" y="485" width="24" height="12" fill="#F67800" />
<rect x="870" y="485" width="149" height="12" fill="#E32C00" />
<rect x="1019" y="485" width="21" height="12" fill="#F67800" />
<rect x="1121" y="485" width="12" height="12" fill="#F67800" />
<rect x="1133" y="485" width="22" height="12" fill="#E32C00" />
<rect x="1040" y="486" width="24" height="11" fill="#F67800" />
<rect x="1064" y="486" width="26" height="23" fill="#EFF801" />
<rect x="1090" y="486" width="31" height="12" fill="#F4F88A" />
<rect x="1155" y="491" width="1" height="18" fill="#E32C00" />
<rect x="939" y="497" width="113" height="12" fill="#E32C00" />
<rect x="1052" y="497" width="12" height="47" fill="#F67800" />
<rect x="1121" y="497" width="10" height="34" fill="#F4F88A" />
<rect x="1131" y="497" width="12" height="12" fill="#F67800" />
<rect x="1143" y="497" width="12" height="12" fill="#E32C00" />
<rect x="1156" y="497" width="11" height="81" fill="#E32C00" />
<rect x="1090" y="498" width="19" height="81" fill="#EFF801" />
<rect x="1109" y="498" width="12" height="10" fill="#F4F88A" />
<rect x="836" y="508" width="25" height="12" fill="#E32C00" />
<rect x="1109" y="508" width="11" height="60" fill="#EFF801" />
<rect x="1120" y="508" width="1" height="23" fill="#F4F88A" />
<rect x="1027" y="509" width="12" height="23" fill="#E32C00" />
<rect x="1039" y="509" width="13" height="35" fill="#F67800" />
<rect x="1064" y="509" width="9" height="12" fill="#F67800" />
<rect x="1073" y="509" width="17" height="59" fill="#EFF801" />
<rect x="1131" y="509" width="13" height="22" fill="#F4F88A" />
<rect x="1144" y="509" width="12" height="57" fill="#F67800" />
<rect x="950" y="520" width="77" height="12" fill="#E32C00" />
<rect x="1064" y="521" width="9" height="33" fill="#EFF801" />
<rect x="801" y="531" width="12" height="12" fill="#E32C00" />
<rect x="883" y="531" width="44" height="24" fill="#E32C00" />
<rect x="943" y="531" width="7" height="45" fill="#E32C00" />
<rect x="1120" y="531" width="12" height="12" fill="#EFF801" />
<rect x="1132" y="531" width="12" height="37" fill="#F4F88A" />
<rect x="927" y="532" width="16" height="33" fill="#E32C00" />
<rect x="950" y="532" width="9" height="44" fill="#E32C00" />
<rect x="959" y="532" width="80" height="23" fill="#F67800" />
<rect x="812" y="543" width="71" height="12" fill="#E32C00" />
<rect x="1120" y="543" width="1" height="25" fill="#EFF801" />
<rect x="1121" y="543" width="11" height="48" fill="#F4F88A" />
<rect x="1039" y="544" width="1" height="22" fill="#F67800" />
<rect x="1040" y="544" width="24" height="10" fill="#EFF801" />
<rect x="1040" y="554" width="33" height="12" fill="#F67800" />
<rect x="906" y="555" width="21" height="10" fill="#E32C00" />
<rect x="959" y="555" width="60" height="21" fill="#E32C00" />
<rect x="1019" y="555" width="20" height="11" fill="#F67800" />
<rect x="940" y="565" width="3" height="11" fill="#E32C00" />
<rect x="1019" y="566" width="34" height="22" fill="#E32C00" />
<rect x="1053" y="566" width="20" height="14" fill="#F67800" />
<rect x="1144" y="566" width="12" height="22" fill="#E32C00" />
<rect x="1073" y="568" width="13" height="12" fill="#F67800" />
<rect x="1086" y="568" width="4" height="20" fill="#EFF801" />
<rect x="1109" y="568" width="12" height="23" fill="#F4F88A" />
<rect x="1132" y="568" width="6" height="9" fill="#F4F88A" />
<rect x="1138" y="568" width="6" height="32" fill="#E32C00" />
<rect x="836" y="576" width="24" height="23" fill="#E32C00" />
<rect x="860" y="576" width="11" height="23" fill="#EFF801" />
<rect x="984" y="576" width="35" height="12" fill="#E32C00" />
<rect x="1132" y="577" width="6" height="23" fill="#E32C00" />
<rect x="1156" y="578" width="3" height="10" fill="#E32C00" />
<rect x="1090" y="579" width="10" height="9" fill="#EFF801" />
<rect x="1100" y="579" width="9" height="9" fill="#F4F88A" />
<rect x="1053" y="580" width="11" height="19" fill="#E32C00" />
<rect x="1064" y="580" width="12" height="23" fill="#F67800" />
<rect x="1076" y="580" width="10" height="8" fill="#EFF801" />
<rect x="916" y="586" width="24" height="12" fill="#E32C00" />
<rect x="810" y="587" width="26" height="12" fill="#E32C00" />
<rect x="871" y="588" width="10" height="11" fill="#EFF801" />
<rect x="1040" y="588" width="13" height="34" fill="#E32C00" />
<rect x="1076" y="588" width="25" height="15" fill="#F67800" />
<rect x="1101" y="588" width="8" height="3" fill="#F4F88A" />
<rect x="1144" y="588" width="1" height="12" fill="#E32C00" />
<rect x="1101" y="591" width="20" height="12" fill="#F67800" />
<rect x="1121" y="591" width="11" height="20" fill="#E32C00" />
<rect x="848" y="599" width="25" height="12" fill="#E32C00" />
<rect x="873" y="599" width="8" height="1" fill="#EFF801" />
<rect x="892" y="599" width="26" height="12" fill="#EFF801" />
<rect x="995" y="599" width="45" height="23" fill="#E32C00" />
<rect x="1053" y="599" width="3" height="23" fill="#E32C00" />
<rect x="1056" y="599" width="8" height="12" fill="#F67800" />
<rect x="1064" y="603" width="11" height="8" fill="#F67800" />
<rect x="1075" y="603" width="46" height="19" fill="#E32C00" />
<rect x="924" y="610" width="71" height="12" fill="#E32C00" />
<rect x="1056" y="611" width="19" height="11" fill="#E32C00" />
<rect x="848" y="621" width="36" height="12" fill="#E32C00" />
<rect x="882" y="633" width="12" height="12" fill="#E32C00" />
<rect x="949" y="633" width="25" height="12" fill="#E32C00" />
<rect x="1004" y="633" width="25" height="12" fill="#E32C00" />
</svg>