<?xml version="1.0" encoding="UTF-8" ?>
<svg version="1.1" width="1920" height="1080" xmlns="http://www.w3.org/2000/svg" shape-rendering="crispEdges">
<rect x="1176" y="312" width="136" height="48" fill="#3F51B5" />
<rect x="1168" y="320" width="8" height="40" fill="#3F51B5" />
<rect x="1312" y="320" width="88" height="40" fill="#3F51B5" />
<rect x="1400" y="328" width="32" height="56" fill="#3F51B5" />
<rect x="1136" y="336" width="32" height="24" fill="#3F51B5" />
<rect x="1432" y="336" width="16" height="56" fill="#3F51B5" />
<rect x="1112" y="344" width="24" height="16" fill="#3F51B5" />
<rect x="1448" y="344" width="16" height="56" fill="#3F51B5" />
<rect x="1464" y="352" width="16" height="56" fill="#3F51B5" />
<rect x="1184" y="360" width="56" height="24" fill="#3F51B5" />
<rect x="1240" y="360" width="104" height="8" fill="#00BCD4" />
<rect x="1344" y="360" width="56" height="8" fill="#3F51B5" />
<rect x="1480" y="360" width="8" height="64" fill="#3F51B5" />
<rect x="1136" y="368" width="48" height="32" fill="#3F51B5" />
<rect x="1240" y="368" width="24" height="16" fill="#3F51B5" />
<rect x="1264" y="368" width="112" height="8" fill="#00BCD4" />
<rect x="1376" y="368" width="24" height="8" fill="#3F51B5" />
<rect x="1488" y="368" width="8" height="64" fill="#3F51B5" />
<rect x="1112" y="376" width="24" height="16" fill="#3F51B5" />
<rect x="1264" y="376" width="8" height="8" fill="#3F51B5" />
<rect x="1272" y="376" width="128" height="8" fill="#00BCD4" />
<rect x="1496" y="376" width="8" height="72" fill="#3F51B5" />
<rect x="1104" y="384" width="8" height="8" fill="#3F51B5" />
<rect x="1184" y="384" width="48" height="8" fill="#3F51B5" />
<rect x="1232" y="384" width="80" height="8" fill="#00BCD4" />
<rect x="1312" y="384" width="48" height="232" fill="#FFFFFF" />
<rect x="1360" y="384" width="72" height="8" fill="#00BCD4" />
<rect x="1504" y="384" width="8" height="88" fill="#3F51B5" />
<rect x="1128" y="392" width="8" height="8" fill="#3F51B5" />
<rect x="1184" y="392" width="24" height="48" fill="#3F51B5" />
<rect x="1208" y="392" width="88" height="8" fill="#00BCD4" />
<rect x="1296" y="392" width="16" height="224" fill="#FFFFFF" />
<rect x="1360" y="392" width="16" height="224" fill="#FFFFFF" />
<rect x="1376" y="392" width="72" height="8" fill="#00BCD4" />
<rect x="1512" y="392" width="8" height="248" fill="#3F51B5" />
<rect x="1152" y="400" width="32" height="8" fill="#3F51B5" />
<rect x="1208" y="400" width="8" height="40" fill="#3F51B5" />
<rect x="1216" y="400" width="64" height="8" fill="#00BCD4" />
<rect x="1280" y="400" width="16" height="16" fill="#FFFFFF" />
<rect x="1376" y="400" width="8" height="216" fill="#FFFFFF" />
<rect x="1384" y="400" width="80" height="8" fill="#00BCD4" />
<rect x="1520" y="400" width="8" height="232" fill="#3F51B5" />
<rect x="1168" y="408" width="16" height="8" fill="#3F51B5" />
<rect x="1216" y="408" width="16" height="16" fill="#3F51B5" />
<rect x="1232" y="408" width="40" height="8" fill="#00BCD4" />
<rect x="1272" y="408" width="8" height="8" fill="#FFFFFF" />
<rect x="1384" y="408" width="24" height="200" fill="#FFFFFF" />
<rect x="1408" y="408" width="64" height="8" fill="#00BCD4" />
<rect x="1472" y="408" width="8" height="8" fill="#3F51B5" />
<rect x="1232" y="416" width="16" height="8" fill="#3F51B5" />
<rect x="1248" y="416" width="40" height="24" fill="#00BCD4" />
<rect x="1288" y="416" width="8" height="8" fill="#FFFFFF" />
<rect x="1408" y="416" width="8" height="192" fill="#FFFFFF" />
<rect x="1416" y="416" width="64" height="8" fill="#00BCD4" />
<rect x="1528" y="416" width="8" height="200" fill="#3F51B5" />
<rect x="392" y="424" width="792" height="24" fill="#3F51B5" />
<rect x="1216" y="424" width="8" height="8" fill="#3F51B5" />
<rect x="1224" y="424" width="24" height="40" fill="#00BCD4" />
<rect x="1288" y="424" width="8" height="8" fill="#00BCD4" />
<rect x="1416" y="424" width="8" height="176" fill="#FFFFFF" />
<rect x="1424" y="424" width="64" height="8" fill="#00BCD4" />
<rect x="1216" y="432" width="8" height="48" fill="#00BCD4" />
<rect x="1288" y="432" width="8" height="192" fill="#FFFFFF" />
<rect x="1424" y="432" width="8" height="160" fill="#FFFFFF" />
<rect x="1432" y="432" width="64" height="16" fill="#00BCD4" />
<rect x="1536" y="432" width="8" height="168" fill="#3F51B5" />
<rect x="1184" y="440" width="16" height="8" fill="#3F51B5" />
<rect x="1200" y="440" width="16" height="40" fill="#00BCD4" />
<rect x="1248" y="440" width="32" height="8" fill="#00BCD4" />
<rect x="1280" y="440" width="8" height="184" fill="#FFFFFF" />
<rect x="392" y="448" width="808" height="32" fill="#00BCD4" />
<rect x="1248" y="448" width="16" height="8" fill="#00BCD4" />
<rect x="1264" y="448" width="16" height="104" fill="#FFFFFF" />
<rect x="1432" y="448" width="16" height="136" fill="#FFFFFF" />
<rect x="1448" y="448" width="56" height="8" fill="#00BCD4" />
<rect x="1544" y="448" width="8" height="136" fill="#3F51B5" />
<rect x="1248" y="456" width="16" height="88" fill="#FFFFFF" />
<rect x="1448" y="456" width="8" height="120" fill="#FFFFFF" />
<rect x="1456" y="456" width="48" height="24" fill="#00BCD4" />
<rect x="1224" y="464" width="8" height="8" fill="#00BCD4" />
<rect x="1232" y="464" width="16" height="80" fill="#FFFFFF" />
<rect x="1224" y="472" width="8" height="72" fill="#FFFFFF" />
<rect x="1504" y="472" width="8" height="120" fill="#00BCD4" />
<rect x="392" y="480" width="832" height="8" fill="#FFFFFF" />
<rect x="1456" y="480" width="8" height="88" fill="#FFFFFF" />
<rect x="1464" y="480" width="40" height="16" fill="#00BCD4" />
<rect x="1552" y="480" width="8" height="72" fill="#3F51B5" />
<rect x="392" y="488" width="104" height="24" fill="#FFFFFF" />
<rect x="496" y="488" width="152" height="8" fill="#00BCD4" />
<rect x="648" y="488" width="88" height="16" fill="#FFFFFF" />
<rect x="736" y="488" width="80" height="8" fill="#00BCD4" />
<rect x="816" y="488" width="408" height="16" fill="#FFFFFF" />
<rect x="496" y="496" width="152" height="16" fill="#FFFFFF" />
<rect x="736" y="496" width="80" height="8" fill="#FFFFFF" />
<rect x="1464" y="496" width="8" height="48" fill="#FFFFFF" />
<rect x="1472" y="496" width="32" height="120" fill="#00BCD4" />
<rect x="648" y="504" width="72" height="24" fill="#FFFFFF" />
<rect x="720" y="504" width="88" height="8" fill="#00BCD4" />
<rect x="808" y="504" width="80" height="32" fill="#FFFFFF" />
<rect x="888" y="504" width="80" height="8" fill="#00BCD4" />
<rect x="968" y="504" width="64" height="24" fill="#FFFFFF" />
<rect x="1032" y="504" width="104" height="8" fill="#00BCD4" />
<rect x="1136" y="504" width="88" height="32" fill="#FFFFFF" />
<rect x="392" y="512" width="16" height="8" fill="#00BCD4" />
<rect x="408" y="512" width="120" height="8" fill="#FFFFFF" />
<rect x="528" y="512" width="104" height="8" fill="#00BCD4" />
<rect x="632" y="512" width="16" height="16" fill="#FFFFFF" />
<rect x="720" y="512" width="88" height="24" fill="#FFFFFF" />
<rect x="888" y="512" width="80" height="16" fill="#FFFFFF" />
<rect x="1032" y="512" width="104" height="24" fill="#FFFFFF" />
<rect x="392" y="520" width="40" height="16" fill="#FFFFFF" />
<rect x="432" y="520" width="80" height="8" fill="#00BCD4" />
<rect x="512" y="520" width="120" height="8" fill="#FFFFFF" />
<rect x="432" y="528" width="96" height="8" fill="#FFFFFF" />
<rect x="528" y="528" width="160" height="32" fill="#00BCD4" />
<rect x="688" y="528" width="32" height="8" fill="#FFFFFF" />
<rect x="888" y="528" width="48" height="8" fill="#FFFFFF" />
<rect x="936" y="528" width="48" height="32" fill="#00BCD4" />
<rect x="984" y="528" width="48" height="8" fill="#FFFFFF" />
<rect x="392" y="536" width="136" height="24" fill="#00BCD4" />
<rect x="688" y="536" width="248" height="24" fill="#00BCD4" />
<rect x="984" y="536" width="232" height="24" fill="#00BCD4" />
<rect x="1216" y="536" width="8" height="8" fill="#FFFFFF" />
<rect x="1216" y="544" width="48" height="24" fill="#00BCD4" />
<rect x="1464" y="544" width="8" height="96" fill="#00BCD4" />
<rect x="1264" y="552" width="8" height="8" fill="#00BCD4" />
<rect x="1272" y="552" width="8" height="72" fill="#FFFFFF" />
<rect x="392" y="560" width="784" height="24" fill="#3F51B5" />
<rect x="1176" y="560" width="40" height="8" fill="#00BCD4" />
<rect x="1264" y="560" width="8" height="64" fill="#FFFFFF" />
<rect x="1176" y="568" width="48" height="8" fill="#3F51B5" />
<rect x="1224" y="568" width="40" height="8" fill="#00BCD4" />
<rect x="1456" y="568" width="8" height="80" fill="#00BCD4" />
<rect x="1176" y="576" width="40" height="8" fill="#3F51B5" />
<rect x="1216" y="576" width="40" height="16" fill="#00BCD4" />
<rect x="1256" y="576" width="8" height="48" fill="#FFFFFF" />
<rect x="1448" y="576" width="8" height="80" fill="#00BCD4" />
<rect x="1160" y="584" width="48" height="8" fill="#3F51B5" />
<rect x="1208" y="584" width="8" height="64" fill="#00BCD4" />
<rect x="1432" y="584" width="8" height="8" fill="#FFFFFF" />
<rect x="1440" y="584" width="8" height="72" fill="#00BCD4" />
<rect x="1144" y="592" width="56" height="8" fill="#3F51B5" />
<rect x="1200" y="592" width="8" height="56" fill="#00BCD4" />
<rect x="1216" y="592" width="32" height="8" fill="#00BCD4" />
<rect x="1248" y="592" width="8" height="32" fill="#FFFFFF" />
<rect x="1424" y="592" width="16" height="72" fill="#00BCD4" />
<rect x="1504" y="592" width="8" height="56" fill="#3F51B5" />
<rect x="1120" y="600" width="64" height="8" fill="#3F51B5" />
<rect x="1184" y="600" width="16" height="8" fill="#00BCD4" />
<rect x="1216" y="600" width="24" height="8" fill="#00BCD4" />
<rect x="1240" y="600" width="8" height="24" fill="#FFFFFF" />
<rect x="1416" y="600" width="8" height="64" fill="#00BCD4" />
<rect x="1104" y="608" width="40" height="8" fill="#3F51B5" />
<rect x="1152" y="608" width="48" height="24" fill="#3F51B5" />
<rect x="1216" y="608" width="16" height="40" fill="#00BCD4" />
<rect x="1232" y="608" width="8" height="16" fill="#FFFFFF" />
<rect x="1384" y="608" width="16" height="8" fill="#FFFFFF" />
<rect x="1400" y="608" width="16" height="56" fill="#00BCD4" />
<rect x="1296" y="616" width="104" height="40" fill="#00BCD4" />
<rect x="1472" y="616" width="24" height="8" fill="#00BCD4" />
<rect x="1496" y="616" width="8" height="40" fill="#3F51B5" />
<rect x="1128" y="624" width="24" height="24" fill="#3F51B5" />
<rect x="1232" y="624" width="64" height="24" fill="#00BCD4" />
<rect x="1472" y="624" width="8" height="16" fill="#00BCD4" />
<rect x="1480" y="624" width="16" height="40" fill="#3F51B5" />
<rect x="1112" y="632" width="16" height="16" fill="#3F51B5" />
<rect x="1152" y="632" width="32" height="24" fill="#3F51B5" />
<rect x="1184" y="632" width="16" height="8" fill="#00BCD4" />
<rect x="1104" y="640" width="8" height="8" fill="#3F51B5" />
<rect x="1184" y="640" width="8" height="24" fill="#3F51B5" />
<rect x="1192" y="640" width="8" height="8" fill="#00BCD4" />
<rect x="1464" y="640" width="16" height="40" fill="#3F51B5" />
<rect x="1136" y="648" width="16" height="8" fill="#3F51B5" />
<rect x="1192" y="648" width="104" height="16" fill="#3F51B5" />
<rect x="1456" y="648" width="8" height="40" fill="#3F51B5" />
<rect x="1296" y="656" width="16" height="48" fill="#3F51B5" />
<rect x="1312" y="656" width="88" height="8" fill="#00BCD4" />
<rect x="1440" y="656" width="16" height="32" fill="#3F51B5" />
<rect x="1248" y="664" width="48" height="32" fill="#3F51B5" />
<rect x="1312" y="664" width="40" height="8" fill="#00BCD4" />
<rect x="1352" y="664" width="88" height="32" fill="#3F51B5" />
<rect x="1480" y="664" width="8" height="8" fill="#3F51B5" />
<rect x="1240" y="672" width="8" height="24" fill="#3F51B5" />
<rect x="1312" y="672" width="40" height="32" fill="#3F51B5" />
<rect x="1200" y="680" width="40" height="8" fill="#3F51B5" />
<rect x="1440" y="688" width="8" height="8" fill="#3F51B5" />
<rect x="1288" y="696" width="8" height="8" fill="#3F51B5" />
<rect x="1352" y="696" width="80" height="8" fill="#3F51B5" />
<rect x="1320" y="704" width="80" height="8" fill="#3F51B5" />
<rect x="856" y="896" width="8" height="8" fill="#FFFFFF" />
</svg>